inDegrees=yes
name=ik_appendData_SPIN
DataType=double
version=3
OpenSimVersion=4.5
endheader
time	pelvis_tilt	pelvis_list	pelvis_rotation	pelvis_tx	pelvis_ty	pelvis_tz	hip_flexion_r	hip_adduction_r	hip_rotation_r	knee_angle_r	knee_angle_r_beta	ankle_angle_r	subtalar_angle_r	mtp_angle_r	hip_flexion_l	hip_adduction_l	hip_rotation_l	knee_angle_l	knee_angle_l_beta	ankle_angle_l	subtalar_angle_l	mtp_angle_l	lumbar_extension	lumbar_bending	lumbar_rotation	arm_flex_r	arm_add_r	arm_rot_r	elbow_flex_r	pro_sup_r	wrist_flex_r	wrist_dev_r	arm_flex_l	arm_add_l	arm_rot_l	elbow_flex_l	pro_sup_l	wrist_flex_l	wrist_dev_l
25	-2.636652738129419	89.69820509009148	-1.850642602050971	0	0.9399999999999999	0	44.60021467444859	-10.04921059733108	0	59.94703466039782	1.046273131631103	-5.006809993645136	0	0	44.60021467444859	-10.04921059733108	0	59.94703466039782	1.046273131631103	-5.006809993645136	0	0	0.004523536104978595	0.2836536585716808	3.350025717253679	0	-12.37826870588716	0	76.1450888286236	44.92838340587042	0	0	-3.459067337073424	48.02152930816997	2.684364947514212	0.01602472752120943	44.92838340587042	0	0
26	-3.10000088970283	89.69303414538423	-1.643296385789883	0	0.9399999999999999	0	44.63344934789828	-10.03875683222087	0	59.95055214356374	1.046334523293732	-5.005123914619486	0	0	44.63344934789828	-10.03875683222087	0	59.95055214356374	1.046334523293732	-5.005123914619486	0	0	0.002767880783162757	0.2922485707401227	3.603329420446912	0	-12.49853834881908	0	76.04989915038125	44.94146324985969	0	0	-2.965113141864059	47.31353531515753	1.663441027675378	0.01633530212266536	44.94146324985969	0	0
27	-3.097925604616861	89.68969192393359	-1.644462350315091	0	0.9399999999999999	0	44.63352560785274	-10.03872857186107	0	59.95056021994328	1.046334664253146	-5.005119038006598	0	0	44.63352560785274	-10.03872857186107	0	59.95056021994328	1.046334664253146	-5.005119038006598	0	0	0.003385494440268021	0.297543449407402	3.602806480001982	0	-12.49880441879009	0	76.04968072174528	44.94149699542206	0	0	-2.97566009079379	47.31052277692838	1.676605968772131	0.01635933435824211	44.94149699542206	0	0
28	-3.103955638817301	89.70703903421661	-2.769042214134597	0	0.9399999999999999	0	44.65611293241511	-10.03177013327858	0	59.95303826861399	1.046377914361475	-5.004003558626277	0	0	44.65611293241511	-10.03177013327858	0	59.95303826861399	1.046377914361475	-5.004003558626277	0	0	0.005033362593370374	0.2796116155446998	4.728393852178089	0	-12.58115604747047	0	75.98498733217824	44.9502496758992	0	0	-2.547987257773916	44.10089055889644	1.013285852309745	0.01781585643330301	44.9502496758992	0	0
29	-2.763327330612476	89.70444188695207	-3.099875722214758	0	0.9399999999999999	0	44.68291009962256	-10.0261583779612	0	59.95605647751042	1.04643059204423	-5.003203416689729	0	0	44.68291009962256	-10.0261583779612	0	59.95605647751042	1.04643059204423	-5.003203416689729	0	0	0.004422980072916013	0.2758581281935711	4.747745240506169	0	-12.68984838905277	0	75.90824100021416	44.95800150134139	0	0	-1.412113975658905	40.11019239550507	0.08630412403543963	0.01813038946956243	44.95800150134139	0	0
30	-2.463929723024817	89.70911895470242	-3.400412781094607	0	0.9399999999999999	0	44.69591323596423	-10.02279645988926	0	59.95755853661821	1.046456807921221	-5.00269065128567	0	0	44.69591323596423	-10.02279645988926	0	59.95755853661821	1.046456807921221	-5.00269065128567	0	0	0.02082557817176732	0.2624454411881066	4.76916757205956	0	-12.73988318685745	0	75.87099949681354	44.96240747736855	0	0	1.016215808039618	36.04518129127931	-1.149252641466787	0.01559670414385741	44.96240747736855	0	0
31	-1.696704324056057	89.7022754180533	-4.16374463924762	0	0.9399999999999999	0	44.7210319833464	-10.01787472949765	0	59.9604805064042	1.04650780591463	-5.002005556642524	0	0	44.7210319833464	-10.01787472949765	0	59.9604805064042	1.04650780591463	-5.002005556642524	0	0	-0.007252295018484984	0.2846524028399267	4.72425310235201	0	-12.84337457876742	0	75.79906093149101	44.96932956640705	0	0	1.152579518407506	30.63907150519353	-1.06372868223587	0.01777704589415551	44.96932956640705	0	0
32	-1.769404376517199	89.67721280032877	-4.079769969522055	0	0.9399999999999999	0	44.72503091921045	-10.0173673693876	0	59.96103848647916	1.046517544504099	-5.001941734382372	0	0	44.72503091921045	-10.0173673693876	0	59.96103848647916	1.046517544504099	-5.001941734382372	0	0	-0.02308311452933258	0.3123631165639734	4.685622775636473	0	-12.8629612486738	0	75.7876088112762	44.97010983337741	0	0	-0.5773594619830916	24.71777874716827	-0.5844134314163436	0.02844205990983939	44.97010983337741	0	0
33	-1.78079289369719	89.70301056760395	-4.085100605135227	0	0.9399999999999999	0	44.72880662683431	-10.01683800595207	0	59.96155933951346	1.046526635104466	-5.001872857352437	0	0	44.72880662683431	-10.01683800595207	0	59.96155933951346	1.046526635104466	-5.001872857352437	0	0	1.13913406339894	0.3260784739490122	4.740758646486741	0	-12.88102128884843	0	75.77679587760485	44.97090319758237	0	0	-2.834689610828505	19.17697349171528	-0.7590255184768879	0.04834314780540926	44.97090319758237	0	0
34	-2.361487104283571	89.71452406422476	-4.617779538547095	0	0.9399999999999999	0	44.73154921866811	-10.01646601533602	0	59.9619524053134	1.046533495396852	-5.00182499081024	0	0	44.73154921866811	-10.01646601533602	0	59.9619524053134	1.046533495396852	-5.00182499081024	0	0	1.129611427710407	0.3396842711827551	5.844320022018207	0	-12.89435908575388	0	75.76894164103237	44.97146495012856	0	0	-3.03661980729759	13.78343111935136	-1.804354550764853	0.1141907460879295	44.97146495012856	0	0
35	-2.381368878919208	89.71237584219828	-4.594120999189206	0	0.9399999999999999	0	44.73496675122833	-10.01600164446689	0	59.9624424246735	1.046542047848084	-5.001765101426297	0	0	44.73496675122833	-10.01600164446689	0	59.9624424246735	1.046542047848084	-5.001765101426297	0	0	1.114443169848793	0.3289752527884356	5.832106003161513	0	-12.91100312697278	0	75.75915451092584	44.97216533596811	0	0	-4.826144636686826	8.325179877570408	-2.713329189428275	2.094227786487728	44.97216533596811	0	0
36	-2.384302221468925	89.71006849595794	-4.591568215775225	0	0.9399999999999999	0	44.73720988117133	-10.01569095816068	0	59.96276025166697	1.046547594975572	-5.001724821993798	0	0	44.73720988117133	-10.01569095816068	0	59.96276025166697	1.046547594975572	-5.001724821993798	0	0	1.113719413015064	0.3306545507684463	5.841302887356265	0	-12.92185773404784	0	75.75273062180896	44.97263188977027	0	0	-5.196835289490336	4.194113186573283	-3.071408189182284	3.237555449750368	44.97263188977027	0	0
37	-2.389373700511324	89.70882102992448	-4.589263341664059	0	0.9399999999999999	0	44.73919808416552	-10.01541584714977	0	59.96304177197483	1.046552508431856	-5.001689137263123	0	0	44.73919808416552	-10.01541584714977	0	59.96304177197483	1.046552508431856	-5.001689137263123	0	0	1.118408985235498	0.3294258765610333	5.842224222958126	0	-12.93149044722348	0	75.7470367955424	44.97304496150308	0	0	-5.543193739728394	0.5863174931911943	-2.241807008267118	4.227936219232716	44.97304496150308	0	0
38	-2.386598662557595	89.71099207726279	-4.58721212861595	0	0.9399999999999999	0	44.74032958776954	-10.01526043400788	0	59.96320030089189	1.046555275283418	-5.001669064473281	0	0	44.74032958776954	-10.01526043400788	0	59.96320030089189	1.046555275283418	-5.001669064473281	0	0	1.123955641361829	0.3348091804128287	5.839806229916442	0	-12.93696679304865	0	75.74379638852594	44.97327897312181	0	2.324457819450761e-67	-5.713704396939726	-1.211783307639924	-1.829239906548665	4.73939646539274	44.97327897312181	0	2.324457819450761e-67
39	-2.384194559659507	89.71108386295109	-4.588881616535077	0	0.9399999999999999	0	44.74110427566681	-10.01514531455254	0	59.96330376984393	1.046557081157305	-5.001653877357912	0	0	44.74110427566681	-10.01514531455254	0	59.96330376984393	1.046557081157305	-5.001653877357912	0	0	1.121123949114988	0.3345317143125799	5.839101080316174	0	-12.94060234220749	0	75.74157781280982	44.97344935653943	0	0	-5.832924733708326	-2.332958882591075	-2.507068073773856	5.087118179537772	44.97344935653943	0	0
40	-2.383873366673527	89.7140596217376	-4.591575179889693	0	0.9399999999999999	0	44.74114539591969	-10.01513686431685	0	59.96330833688032	1.046557160867127	-5.001652672698778	0	0	44.74114539591969	-10.01513686431685	0	59.96330833688032	1.046557160867127	-5.001652672698778	0	0	1.144136349991059	0.3309477085555816	5.838674985246731	0	-12.94076920608515	0	75.74146004687303	44.97346106570397	0	0	-5.825568550169898	-1.751036692463354	-2.457213110718489	4.962937276026877	44.97346106570397	0	0
41	-2.381829177182924	89.71161593731405	-4.593341734378681	0	0.9399999999999999	0	44.7412241565408	-10.01512070051677	0	59.96331709961777	1.046557313805747	-5.001650368585348	0	0	44.7412241565408	-10.01512070051677	0	59.96331709961777	1.046557313805747	-5.001650368585348	0	0	1.127852323662289	0.3262590799677271	5.83929111209499	0	-12.94108921394541	0	75.74123448124656	44.97348346617708	0	0	-5.795150746740881	-1.762438960156864	-2.456630081728112	4.926672707759576	44.97348346617708	0	0
42	-2.380034149316828	89.71080080837541	-4.595004677833643	0	0.9399999999999999	0	44.74128890017829	-10.01510742525084	0	59.9633243039517	1.046557439545094	-5.001648476899425	0	0	44.74128890017829	-10.01510742525084	0	59.9633243039517	1.046557439545094	-5.001648476899425	0	0	1.134090442420553	0.337156455421867	5.839339431602335	0	-12.94135232447687	0	75.74104905942499	44.97350186819551	0	0	-5.792252882617686	-1.746890113748016	-2.455659741085995	4.931961034299543	44.97350186819551	0	0
